<?xml version="1.0" ?><svg enable-background="new 0 0 32 32" version="1.1" viewBox="0 0 32 32" xml:space="preserve" xmlns="http://www.w3.org/2000/svg" xmlns:xlink="http://www.w3.org/1999/xlink"><g id="Flat_copy_5"><g><rect height="22.627" transform="matrix(0.7071 -0.7071 0.7071 0.7071 -6.6274 16)" width="22.627" x="4.686" y="4.686"/><polygon fill="#FFB000" points="18.319,4.13 18.224,2.224 29.776,13.776 27.87,13.681   "/><polygon fill="#FFB000" points="13.681,27.87 13.776,29.776 2.224,18.224 4.13,18.319   "/></g><g><path d="M18.871,8.296c0,0-3.192,0-4.285,0c-1.961,0-3.806,1.376-3.806,3.096c0,1.758,1.336,3.124,3.331,3.124    c0.139,0,0.274-0.031,0.406-0.041c-0.131,0.247-0.221,0.512-0.221,0.802c0,0.489,0.262,0.879,0.594,1.202    c-0.249,0-0.493,0.003-0.758,0.003c-2.428,0.001-4.298,1.546-4.298,3.15c0,1.58,2.049,2.569,4.478,2.569    c2.769,0,4.299-1.573,4.299-3.152c0-1.266-0.374-2.025-1.529-2.844c-0.396-0.279-1.151-0.959-1.151-1.36    c0-0.469,0.133-0.699,0.84-1.251c0.722-0.565,1.235-1.238,1.235-2.163c0-1.099-0.473-2.44-1.393-2.44h1.564L18.871,8.296z     M17.432,18.776c0.033,0.147,0.054,0.298,0.054,0.451c0,1.276-0.824,2.274-3.184,2.274c-1.679,0-2.891-1.062-2.891-2.339    c0-1.251,1.504-2.293,3.183-2.274c0.391,0.004,0.756,0.067,1.087,0.173C16.593,17.696,17.247,18.054,17.432,18.776z     M14.743,14.015c-1.127-0.033-2.198-1.26-2.392-2.739c-0.194-1.481,0.562-2.613,1.688-2.58c1.126,0.035,2.198,1.222,2.392,2.702    C16.626,12.876,15.87,14.048,14.743,14.015z" fill="#FFFFFF"/><polygon fill="#FFFFFF" points="22.347,13.853 22.347,11.768 20.956,11.768 20.956,13.853 18.871,13.853 18.871,15.244     20.956,15.244 20.956,17.329 22.347,17.329 22.347,15.244 24.432,15.244 24.432,13.853   "/></g></g><g id="Layer_8"/></svg>