<?xml version="1.0" ?><svg enable-background="new 0 0 32 32" version="1.1" viewBox="0 0 32 32" xml:space="preserve" xmlns="http://www.w3.org/2000/svg" xmlns:xlink="http://www.w3.org/1999/xlink"><g id="Flat_copy_5"><g><rect height="22.627" transform="matrix(0.7071 -0.7071 0.7071 0.7071 -6.6274 16)" width="22.627" x="4.686" y="4.686"/><polygon fill="#FFB000" points="18.319,4.13 18.224,2.224 29.776,13.776 27.87,13.681   "/><polygon fill="#FFB000" points="13.681,27.87 13.776,29.776 2.224,18.224 4.13,18.319   "/></g><path d="M23.01,20.734v-4.441c0-2.379-1.27-3.487-2.964-3.487c-1.367,0-1.979,0.752-2.32,1.279v-1.097h-2.575   c0.034,0.727,0,7.746,0,7.746h2.575v-4.326c0-0.231,0.017-0.462,0.085-0.628c0.186-0.463,0.609-0.942,1.32-0.942   c0.932,0,1.304,0.71,1.304,1.751v4.144L23.01,20.734L23.01,20.734z M12.44,11.931c0.898,0,1.457-0.595,1.457-1.339   c-0.017-0.76-0.559-1.338-1.44-1.338c-0.88,0-1.456,0.578-1.456,1.338c0,0.744,0.559,1.339,1.423,1.339H12.44z M13.727,20.734   v-7.746h-2.574v7.746H13.727z" fill="#FFFFFF"/></g><g id="Layer_8"/></svg>