<?xml version="1.0" ?><svg enable-background="new 0 0 32 32" version="1.1" viewBox="0 0 32 32" xml:space="preserve" xmlns="http://www.w3.org/2000/svg" xmlns:xlink="http://www.w3.org/1999/xlink"><g id="Flat_copy_5"><g><rect height="22.627" transform="matrix(0.7071 -0.7071 0.7071 0.7071 -6.6274 16)" width="22.627" x="4.686" y="4.686"/><polygon fill="#FFB000" points="18.319,4.13 18.224,2.224 29.776,13.776 27.87,13.681   "/><polygon fill="#FFB000" points="13.681,27.87 13.776,29.776 2.224,18.224 4.13,18.319   "/></g><path d="M17.655,10.721c-1.182,0.43-1.93,1.54-1.845,2.754l0.028,0.469l-0.473-0.057   c-1.721-0.22-3.226-0.966-4.503-2.219l-0.624-0.622l-0.161,0.459c-0.34,1.023-0.123,2.104,0.586,2.831   c0.378,0.402,0.293,0.459-0.359,0.22c-0.227-0.076-0.426-0.134-0.445-0.105c-0.066,0.067,0.161,0.937,0.34,1.282   c0.246,0.479,0.747,0.947,1.296,1.224l0.464,0.22l-0.549,0.009c-0.53,0-0.549,0.009-0.492,0.211   c0.189,0.622,0.936,1.282,1.769,1.569l0.586,0.2l-0.511,0.306c-0.757,0.441-1.646,0.689-2.535,0.707   c-0.426,0.009-0.776,0.048-0.776,0.077c0,0.095,1.154,0.631,1.826,0.842c2.015,0.622,4.409,0.354,6.206-0.708   c1.277-0.756,2.554-2.257,3.15-3.712c0.322-0.774,0.643-2.19,0.643-2.869c0-0.44,0.028-0.498,0.558-1.023   c0.312-0.306,0.605-0.641,0.662-0.736c0.095-0.182,0.085-0.182-0.397-0.019c-0.804,0.287-0.918,0.249-0.52-0.181   c0.293-0.306,0.643-0.861,0.643-1.023c0-0.028-0.142,0.019-0.303,0.105c-0.17,0.096-0.549,0.239-0.833,0.325l-0.511,0.163   l-0.464-0.316c-0.256-0.172-0.614-0.363-0.804-0.421C18.829,10.549,18.091,10.568,17.655,10.721z" fill="#FFFFFF"/></g><g id="Layer_8"/></svg>